#!OML:ASF I:\Actors\actors\Patient Classification 2\Patient 1\Session 1\actor1.ASF
:FULLY-SPECIFIED
:DEGREES
185
root -0.507594 18.7695 5.35292 4.87627 8.34097 0.758306
lowerback 8.76835 4.61876 2.50916
upperback 0.473716 6.53595 3.02107
thorax -4.48237 3.2122 0.920059
lowerneck -11.2861 -9.12616 -7.87079
upperneck 15.9054 -11.7298 4.04876
head 7.45121 -5.73455 1.38316
rclavicle 1.80894e-014 1.59028e-015
rhumerus 0.0570944 6.62523 -72.4847
rradius 65.3352
rwrist -45.5275
rhand 3.27061 -52.6768
rfingers 7.12502
rthumb 28.7191 -80.4885
lclavicle 1.80894e-014 1.59028e-015
lhumerus -48.9108 -11.236 94.1091
lradius 55.6274
lwrist 9.42599
lhand -4.7274 -18.9386
lfingers 7.12502
lthumb 21.0553 9.93833
rfemur 0 0 0
rtibia 0
rfoot 0 0
rtoes 0
lfemur -11.7523 -7.96555 -14.4127
ltibia 22.1798
lfoot -17.5873 7.98494
ltoes -56.13
186
root -0.511297 18.7686 5.35568 4.86631 8.4279 0.750474
lowerback 8.75596 4.63328 2.49151
upperback 0.501145 6.5522 3.03015
thorax -4.44991 3.22133 0.939447
lowerneck -11.2346 -9.12471 -7.82527
upperneck 15.7461 -11.7207 3.98003
head 7.38233 -5.73551 1.36099
rclavicle 1.09332e-014 2.38542e-014
rhumerus 0.0180655 6.81021 -72.3699
rradius 65.4463
rwrist -45.657
rhand 3.28078 -52.6694
rfingers 7.12502
rthumb 28.7288 -80.4795
lclavicle 1.09332e-014 2.38542e-014
lhumerus -48.9194 -11.2749 94.0418
lradius 55.7193
lwrist 9.42091
lhand -4.77794 -18.9841
lfingers 7.12502
lthumb 21.0068 9.89823
rfemur 0 0 0
rtibia 0
rfoot 0 0
rtoes 0
lfemur -11.7462 -7.97277 -14.3868
ltibia 22.169
lfoot -17.5878 7.92379
ltoes -56.1989
187
root -0.514911 18.768 5.35972 4.85511 8.49658 0.705092
lowerback 8.75815 4.64269 2.49873
upperback 0.49696 6.56689 3.05141
thorax -4.45735 3.22861 0.955189
lowerneck -11.1645 -9.13704 -7.79706
upperneck 15.6732 -11.7339 3.91957
head 7.34157 -5.74713 1.34064
rclavicle -4.6118e-014 6.36111e-015
rhumerus -0.0953583 6.9624 -72.3211
rradius 65.5602
rwrist -45.8281
rhand 3.23324 -52.6671
rfingers 7.12502
rthumb 28.6834 -80.4849
lclavicle -4.6118e-014 6.36111e-015
lhumerus -48.977 -11.3142 93.987
lradius 55.8364
lwrist 9.44148
lhand -4.78272 -18.9495
lfingers 7.12502
lthumb 21.0022 9.93336
rfemur 0 0 0
rtibia 0
rfoot 0 0
rtoes 0
lfemur -11.7299 -8.00064 -14.3162
ltibia 22.1547
lfoot -17.5655 7.87771
ltoes -56.1977
188
root -0.517324 18.7676 5.36409 4.84018 8.55821 0.65201
lowerback 8.80128 4.6499 2.55407
upperback 0.462637 6.58536 3.04848
thorax -4.5109 3.23554 0.914277
lowerneck -11.1329 -9.15319 -7.77683
upperneck 15.7067 -11.7572 3.88575
head 7.34506 -5.76034 1.32495
rclavicle 6.02318e-014 -2.22639e-014
rhumerus -0.286632 7.01419 -72.3584
rradius 65.6496
rwrist -46.0425
rhand 3.18492 -52.6964
rfingers 7.12502
rthumb 28.6372 -80.522
lclavicle 6.02318e-014 -2.22639e-014
lhumerus -49.076 -11.3754 93.9113
lradius 55.9721
lwrist 9.48064
lhand -4.7855 -18.9169
lfingers 7.12502
lthumb 20.9995 9.96621
rfemur 0 0 0
rtibia 0
rfoot 0 0
rtoes 0
lfemur -11.7061 -8.09774 -14.2383
ltibia 22.1335
lfoot -17.5796 7.87282
ltoes -56.1759
189
root -0.518487 18.7668 5.36694 4.83916 8.60025 0.647293
lowerback 8.85698 4.65235 2.59611
upperback 0.434891 6.59528 3.02353
thorax -4.56335 3.23819 0.858244
lowerneck -11.148 -9.15312 -7.74633
upperneck 15.7408 -11.754 3.83747
head 7.35371 -5.76075 1.30407
rclavicle 3.95581e-014 -3.65764e-014
rhumerus -0.462821 7.0072 -72.458
rradius 65.7432
rwrist -46.143
rhand 3.19898 -52.7738
rfingers 7.12502
rthumb 28.6507 -80.5971
lclavicle 3.95581e-014 -3.65764e-014
lhumerus -49.1166 -11.3808 93.8354
lradius 56.083
lwrist 9.541
lhand -4.774 -18.9199
lfingers 7.12502
lthumb 21.0105 9.96203
rfemur 0 0 0
rtibia 0
rfoot 0 0
rtoes 0
lfemur -11.6917 -8.2427 -14.2178
ltibia 22.1044
lfoot -17.6471 7.90344
ltoes -56.1115
190
root -0.520428 18.7655 5.36894 4.85455 8.59919 0.674288
lowerback 8.89106 4.65728 2.56366
upperback 0.431081 6.60002 3.01704
thorax -4.58926 3.24066 0.865531
lowerneck -11.1629 -9.14576 -7.76918
upperneck 15.6938 -11.7372 3.83956
head 7.34149 -5.7539 1.31035
rclavicle -6.40087e-014 1.74931e-014
rhumerus -0.547143 7.05641 -72.5326
rradius 65.8379
rwrist -46.1228
rhand 3.23317 -52.8253
rfingers 7.12502
rthumb 28.6833 -80.6431
lclavicle -6.40087e-014 1.74931e-014
lhumerus -49.0987 -11.3112 93.7893
lradius 56.1932
lwrist 9.65633
lhand -4.76817 -18.9158
lfingers 7.12502
lthumb 21.0161 9.96553
rfemur 0 0 0
rtibia 0
rfoot 0 0
rtoes 0
lfemur -11.6805 -8.31945 -14.2284
ltibia 22.0637
lfoot -17.6718 7.90538
ltoes -55.9585
191
root -0.522233 18.7646 5.37158 4.85627 8.55769 0.676347
lowerback 8.9241 4.66996 2.53395
upperback 0.444988 6.61524 3.02722
thorax -4.59782 3.24879 0.88812
lowerneck -11.1858 -9.1395 -7.79762
upperneck 15.5962 -11.7239 3.87256
head 7.31662 -5.74659 1.32748
rclavicle 3.69739e-014 3.02153e-014
rhumerus -0.577671 7.16679 -72.5827
rradius 65.9215
rwrist -46.1494
rhand 3.07106 -52.7835
rfingers 7.12502
rthumb 28.5285 -80.6274
lclavicle 3.69739e-014 3.02153e-014
lhumerus -49.077 -11.2666 93.7626
lradius 56.3315
lwrist 9.82273
lhand -4.84707 -18.8544
lfingers 7.12502
lthumb 20.9403 10.0353
rfemur 0 0 0
rtibia 0
rfoot 0 0
rtoes 0
lfemur -11.6365 -8.32012 -14.2171
ltibia 22.0154
lfoot -17.6733 7.88155
ltoes -55.8511
192
root -0.522583 18.7645 5.37385 4.85263 8.50911 0.67183
lowerback 8.98292 4.68936 2.56132
upperback 0.463331 6.64579 3.0349
thorax -4.60947 3.26304 0.87304
lowerneck -11.2441 -9.14858 -7.84194
upperneck 15.5188 -11.7214 3.87642
head 7.30434 -5.74707 1.33442
rclavicle 5.62561e-014 -2.22639e-014
rhumerus -0.643355 7.29398 -72.5903
rradius 66.0381
rwrist -46.1787
rhand 2.9091 -52.798
rfingers 7.12502
rthumb 28.3737 -80.6677
lclavicle 5.62561e-014 -2.22639e-014
lhumerus -49.0473 -11.2757 93.779
lradius 56.4873
lwrist 9.99744
lhand -4.91093 -18.7923
lfingers 7.12502
lthumb 20.879 10.1042
rfemur 0 0 0
rtibia 0
rfoot 0 0
rtoes 0
lfemur -11.5863 -8.32422 -14.2105
ltibia 21.9781
lfoot -17.7071 7.87819
ltoes -55.8582
193
root -0.523456 18.7646 5.37482 4.85512 8.48092 0.666293
lowerback 9.06746 4.71992 2.60356
upperback 0.465326 6.69494 3.04763
thorax -4.65158 3.28562 0.84959
lowerneck -11.2854 -9.17719 -7.87381
upperneck 15.4613 -11.7416 3.83389
head 7.29332 -5.76174 1.32252
rclavicle -2.94201e-014 -1.11319e-014
rhumerus -0.767597 7.40574 -72.5259
rradius 66.163
rwrist -46.234
rhand 2.99071 -52.8505
rfingers 7.12502
rthumb 28.4517 -80.7072
lclavicle -2.94201e-014 -1.11319e-014
lhumerus -49.003 -11.2603 93.825
lradius 56.5755
lwrist 10.0525
lhand -4.84191 -18.8825
lfingers 7.12502
lthumb 20.9453 10.0067
rfemur 0 0 0
rtibia 0
rfoot 0 0
rtoes 0
lfemur -11.5676 -8.38356 -14.2015
ltibia 21.9639
lfoot -17.7501 7.92262
ltoes -55.8532
194
root -0.5239 18.7652 5.37524 4.89262 8.44339 0.647158
lowerback 9.10844 4.75565 2.63729
upperback 0.468046 6.74863 3.06855
thorax -4.67054 3.31121 0.842443
lowerneck -11.3584 -9.20893 -7.80593
upperneck 15.4136 -11.7681 3.7128
head 7.28007 -5.77991 1.26851
rclavicle 2.80286e-014 -4.77083e-015
rhumerus -0.868302 7.47168 -72.4792
rradius 66.2226
rwrist -46.3285
rhand 3.11385 -52.8243
rfingers 7.12502
rthumb 28.5693 -80.6613
lclavicle 2.80286e-014 -4.77083e-015
lhumerus -48.8903 -11.2318 93.8696
lradius 56.569
lwrist 9.99465
lhand -4.837 -18.9732
lfingers 7.12502
lthumb 20.95 9.91536
rfemur 0 0 0
rtibia 0
rfoot 0 0
rtoes 0
lfemur -11.5992 -8.48276 -14.1752
ltibia 21.9646
lfoot -17.7896 8.01031
ltoes -55.8134
195
root -0.52287 18.7663 5.37476 4.95411 8.36998 0.614465
lowerback 9.13638 4.80446 2.70669
upperback 0.471443 6.82243 3.08562
thorax -4.67689 3.34607 0.81052
lowerneck -11.455 -9.24676 -7.79187
upperneck 15.361 -11.8029 3.65667
head 7.2772 -5.79912 1.24114
rclavicle -1.25234e-014 2.38542e-014
rhumerus -0.946609 7.61567 -72.4394
rradius 66.2347
rwrist -46.8906
rhand 2.10178 -52.057
rfingers 7.12502
rthumb 27.6019 -80.0526
lclavicle -1.25234e-014 2.38542e-014
lhumerus -48.7579 -11.344 93.9457
lradius 56.5642
lwrist 10.0165
lhand -5.01141 -18.9832
lfingers 7.12502
lthumb 20.7824 9.9239
rfemur 0 0 0
rtibia 0
rfoot 0 0
rtoes 0
lfemur -11.66 -8.54378 -14.1385
ltibia 21.9728
lfoot -17.8247 8.09724
ltoes -55.8269
196
root -0.52185 18.7671 5.37315 4.97027 8.28688 0.588139
lowerback 9.25228 4.86432 2.81043
upperback 0.451958 6.91907 3.08918
thorax -4.75051 3.38975 0.733919
lowerneck -11.4902 -9.28931 -7.81364
upperneck 15.3336 -11.8481 3.62726
head 7.27651 -5.82392 1.22867
rclavicle 6.06293e-014 3.18055e-015
rhumerus -1.07205 8.04741 -72.3119
rradius 66.23
rwrist -48.5409
rhand -0.892231 -49.84
rfingers 7.12502
rthumb 24.7355 -78.2607
lclavicle 6.06293e-014 3.18055e-015
lhumerus -48.7167 -11.5567 94.0441
lradius 56.6046
lwrist 10.074
lhand -5.02917 -19.0489
lfingers 7.12502
lthumb 20.7654 9.85999
rfemur 0 0 0
rtibia 0
rfoot 0 0
rtoes 0
lfemur -11.6798 -8.54712 -14.1189
ltibia 21.9889
lfoot -17.8569 8.1706
ltoes -55.8901
197
root -0.520578 18.7671 5.37007 4.93314 8.1997 0.593576
lowerback 9.43797 4.93356 2.91153
upperback 0.442946 7.03093 3.0911
thorax -4.85189 3.44017 0.648946
lowerneck -11.5171 -9.33041 -7.71493
upperneck 15.3486 -11.89 3.45547
head 7.27135 -5.85255 1.15317
rclavicle -6.75868e-015 -1.74931e-014
rhumerus -1.02049 7.78093 -72.0785
rradius 65.9932
rwrist -47.328
rhand 1.88025 -51.4806
rfingers 7.12502
rthumb 27.3901 -79.5099
lclavicle -6.75868e-015 -1.74931e-014
lhumerus -48.7272 -11.8516 94.2038
lradius 56.6978
lwrist 10.154
lhand -4.91729 -19.0796
lfingers 7.12502
lthumb 20.8729 9.81756
rfemur 0 0 0
rtibia 0
rfoot 0 0
rtoes 0
lfemur -11.6428 -8.50023 -14.1452
ltibia 22.0061
lfoot -17.8643 8.22481
ltoes -55.9338
198
root -0.517343 18.7671 5.36556 4.88709 8.08913 0.611605
lowerback 9.61315 5.02116 3.02763
upperback 0.4805 7.16693 3.10821
thorax -4.8982 3.50337 0.571301
lowerneck -11.5872 -9.36006 -7.5535
upperneck 15.3334 -11.9082 3.19885
head 7.25285 -5.87307 1.0431
rclavicle -6.26172e-014 -7.95139e-015
rhumerus -0.958697 7.89565 -71.7346
rradius 65.8217
rwrist -47.7675
rhand 1.95248 -51.459
rfingers 7.12502
rthumb 27.4591 -79.4774
lclavicle -6.26172e-014 -7.95139e-015
lhumerus -48.6479 -12.2012 94.414
lradius 56.7798
lwrist 10.3032
lhand -4.89017 -19.0431
lfingers 7.12502
lthumb 20.8989 9.85114
rfemur 0 0 0
rtibia 0
rfoot 0 0
rtoes 0
lfemur -11.5924 -8.41658 -14.1928
ltibia 22.0182
lfoot -17.8495 8.26571
ltoes -55.9292
199
root -0.511381 18.7672 5.36216 4.86937 7.94625 0.612033
lowerback 9.72438 5.1167 3.18366
upperback 0.539263 7.31448 3.14107
thorax -4.88305 3.57292 0.493625
lowerneck -11.7 -9.37514 -7.41221
upperneck 15.355 -11.893 2.89855
head 7.25047 -5.88177 0.923326
rclavicle -2.24627e-014 3.49861e-014
rhumerus -0.855768 8.52879 -71.2467
rradius 65.7212
rwrist -49.7696
rhand -0.636777 -49.7843
rfingers 7.12502
rthumb 24.9803 -78.1712
lclavicle -2.24627e-014 3.49861e-014
lhumerus -48.4608 -12.4439 94.5739
lradius 56.7974
lwrist 10.4155
lhand -4.90285 -19.0535
lfingers 7.12502
lthumb 20.8868 9.84213
rfemur 0 0 0
rtibia 0
rfoot 0 0
rtoes 0
lfemur -11.5567 -8.34323 -14.2267
ltibia 22.0274
lfoot -17.8839 8.31398
ltoes -55.861
200
root -0.503428 18.7669 5.36194 4.85757 7.78212 0.601111
lowerback 9.77508 5.23683 3.34812
upperback 0.61025 7.49337 3.20077
thorax -4.82296 3.65933 0.441485
lowerneck -11.7852 -9.42986 -7.31193
upperneck 15.4564 -11.9241 2.5719
head 7.27284 -5.91731 0.795379
rclavicle -9.58142e-014 4.77083e-015
rhumerus -0.559169 8.50614 -70.5325
rradius 65.3455
rwrist -48.2157
rhand 3.35868 -51.6358
rfingers 7.12502
rthumb 28.8032 -79.4332
lclavicle -9.58142e-014 4.77083e-015
lhumerus -48.3271 -12.6975 94.7474
lradius 56.8979
lwrist 10.5607
lhand -4.92636 -19.1632
lfingers 7.12502
lthumb 20.8642 9.73491
rfemur 0 0 0
rtibia 0
rfoot 0 0
rtoes 0
lfemur -11.507 -8.27832 -14.258
ltibia 22.0407
lfoot -17.9676 8.3759
ltoes -55.7487
